<?xml version="1.0" encoding="UTF-8" standalone="no"?>
<svg
   version="1.1"
   width="1920"
   height="1080"
   id="svg46"
   sodipodi:docname="C.svg"
   inkscape:version="1.3 (0e150ed6c4, 2023-07-21)"
   xml:space="preserve"
   xmlns:inkscape="http://www.inkscape.org/namespaces/inkscape"
   xmlns:sodipodi="http://sodipodi.sourceforge.net/DTD/sodipodi-0.dtd"
   xmlns="http://www.w3.org/2000/svg"
   xmlns:svg="http://www.w3.org/2000/svg"><defs
     id="defs46" /><sodipodi:namedview
     id="namedview46"
     pagecolor="#ffffff"
     bordercolor="#000000"
     borderopacity="0.25"
     inkscape:showpageshadow="2"
     inkscape:pageopacity="0.0"
     inkscape:pagecheckerboard="0"
     inkscape:deskcolor="#d1d1d1"
     inkscape:zoom="4.9958333"
     inkscape:cx="328.97415"
     inkscape:cy="113.995"
     inkscape:window-width="1920"
     inkscape:window-height="974"
     inkscape:window-x="-11"
     inkscape:window-y="-11"
     inkscape:window-maximized="1"
     inkscape:current-layer="strokes" /><g
     id="ViewLayer_LineSet"
     inkscape:groupmode="lineset"
     inkscape:label="ViewLayer_LineSet"><g
       inkscape:groupmode="layer"
       id="strokes"
       inkscape:label="strokes"><path
         fill="none"
         stroke-width="0.0977148"
         stroke-linecap="butt"
         stroke-opacity="1"
         stroke="#000000"
         stroke-linejoin="round"
         d="m 321.07744,46.298857 c 17.77565,0 35.55133,0 53.32698,0 -5e-4,0.973666 -1.81758,0.422721 -2.62027,0.723065 -4.01057,0.311206 -7.72834,1.964953 -11.60425,2.893666 -3.31423,1.429655 -6.63571,2.987002 -9.78489,4.701047 -3.67801,2.955753 -7.65528,5.625297 -10.67543,9.210111 -2.03025,2.054645 -4.09746,4.085033 -5.29334,6.685888 -1.70638,2.822665 -3.44084,5.634081 -4.2689,8.808528 -0.60654,1.735952 -1.21323,3.47187 -1.81984,5.207814"
         id="path1" /><path
         fill="none"
         stroke-width="0.0977148"
         stroke-linecap="butt"
         stroke-opacity="1"
         stroke="#000000"
         stroke-linejoin="round"
         d="m 350.78241,133.1519 c 4.23674,1.89605 8.21371,4.38584 12.84434,5.38151 3.08572,0.85063 6.10844,2.03354 9.38778,1.86195 0.60768,-0.10651 2.15955,0.26438 0.78202,0.29397 -22.65493,0 -45.30987,0 -67.96481,0"
         id="path2" /><path
         fill="none"
         stroke-width="0.0977148"
         stroke-linecap="butt"
         stroke-opacity="1"
         stroke="#000000"
         stroke-linejoin="round"
         d="m 305.83174,140.68932 c -27.87696,0 -55.75392,0 -83.63088,0 0,-7.46824 0,-14.93648 0,-22.40471 8.45915,0 16.91834,0 25.37752,0 0,-16.52702 0,-33.054033 0,-49.581046"
         id="path3" /><path
         fill="none"
         stroke-width="0.0977148"
         stroke-linecap="butt"
         stroke-opacity="1"
         stroke="#000000"
         stroke-linejoin="round"
         d="m 222.20086,46.298857 c 0,7.468235 0,14.936471 0,22.404707 8.45915,0 16.91834,0 25.37752,0"
         id="path4" /><path
         fill="none"
         stroke-width="0.0977148"
         stroke-linecap="butt"
         stroke-opacity="1"
         stroke="#000000"
         stroke-linejoin="round"
         d="m 250.02377,46.298857 c -9.27431,0 -18.54859,0 -27.82291,0"
         id="path5" /><path
         fill="none"
         stroke-width="0.0977148"
         stroke-linecap="butt"
         stroke-opacity="1"
         stroke="#000000"
         stroke-linejoin="round"
         d="m 328.3375,84.528976 c -0.29443,4.871387 -0.71683,9.7426 -0.20787,14.614989 0.008,2.351665 0.26494,4.659895 1.27283,6.839425 1.10808,3.20391 2.05572,6.47213 4.05728,9.3182 1.46374,2.55067 2.82134,5.17081 5.13691,7.16383 2.5223,2.7408 5.11967,5.40983 8.23132,7.58707 1.31814,1.03317 2.63629,2.06627 3.95444,3.09941"
         id="path6" /><path
         fill="none"
         stroke-width="0.0854555"
         stroke-linecap="butt"
         stroke-opacity="1"
         stroke="#000000"
         stroke-linejoin="round"
         d="m 304.38615,77.251765 c 2.12466,0.618444 4.55319,1.091327 6.48646,1.801523 -0.52396,1.366526 -1.0481,2.732991 -1.57202,4.099547"
         id="path7" /><path
         fill="none"
         stroke-width="0.0854555"
         stroke-linecap="butt"
         stroke-opacity="1"
         stroke="#000000"
         stroke-linejoin="round"
         d="m 269.93614,84.184707 c 1.8907,1.906779 3.39749,4.22601 5.9896,5.379729 2.17875,1.657039 5.02518,1.955218 7.63578,2.700121 3.60858,0.262715 7.21719,0.652713 10.82619,0.180321 2.22247,-0.150576 4.43701,-0.787876 6.48937,-1.549118 2.03154,-0.945517 3.89034,-2.106546 5.40612,-3.695577 0.23244,-0.207118 0.46451,-0.414436 0.69695,-0.621422"
         id="path8" /><path
         fill="none"
         stroke-width="0.0854555"
         stroke-linecap="butt"
         stroke-opacity="1"
         stroke="#000000"
         stroke-linejoin="round"
         d="m 307.43706,58.354013 c 0.93909,1.822242 2.21642,3.794921 2.94364,5.523099 -4.11779,0.74711 -8.36447,1.736545 -12.40153,2.331665 -0.71006,-1.421211 -1.28323,-2.942943 -2.84754,-3.737396 -1.33326,-1.422849 -3.46212,-1.389324 -5.29379,-1.784466 -1.89203,0.519545 -4.15892,0.343975 -5.48455,1.913956 -1.21236,0.824553 -2.18819,1.807941 -2.56512,3.193069 -1.07211,1.978103 -0.89318,4.290674 -1.10756,6.443349 0.38616,2.461156 0.0658,5.098801 1.53842,7.288383 0.42747,1.696078 2.18763,2.429303 3.58632,3.344462 1.99064,0.355314 3.9795,0.819776 5.98359,0.270803 1.54096,-0.09509 2.91867,-1.070192 4.00188,-1.996508 1.45962,-1.602644 2.09023,-3.468608 2.75463,-5.437836"
         id="path9" /><path
         fill="none"
         stroke-width="0.0854555"
         stroke-linecap="butt"
         stroke-opacity="1"
         stroke="#000000"
         stroke-linejoin="round"
         d="m 268.6938,81.559859 c 0.41409,0.874938 0.82806,1.749978 1.24234,2.624848"
         id="path10" /><path
         fill="none"
         stroke-width="0.0854555"
         stroke-linecap="butt"
         stroke-opacity="1"
         stroke="#000000"
         stroke-linejoin="round"
         d="m 269.90053,59.707817 c 1.49182,-1.769499 3.03243,-3.491406 5.11283,-4.686587 1.58608,-1.052152 3.47974,-1.785513 5.32082,-2.327629 3.28785,-0.356674 6.56806,-1.078564 9.86094,-1.196372 2.59317,0.379828 5.32187,0.269632 7.82105,0.989492 1.70717,0.666523 3.41439,1.33313 5.12156,1.999664"
         id="path11" /><path
         fill="none"
         stroke-width="0.0977148"
         stroke-linecap="butt"
         stroke-opacity="1"
         stroke="#000000"
         stroke-linejoin="round"
         d="m 321.07744,46.298857 c -23.68455,0 -47.36911,0 -71.05367,0"
         id="path12" /><path
         fill="none"
         stroke-width="0.0854555"
         stroke-linecap="butt"
         stroke-opacity="1"
         stroke="#000000"
         stroke-linejoin="round"
         d="m 267.36708,78.756901 c 0.30501,0.644198 0.60971,1.28857 0.91476,1.932711"
         id="path13" /><path
         fill="none"
         stroke-width="0.0854555"
         stroke-linecap="butt"
         stroke-opacity="1"
         stroke="#000000"
         stroke-linejoin="round"
         d="m 266.51079,71.991669 c 0.43207,2.443226 0.37806,5.009616 1.14198,7.368683 0.32164,0.679997 0.6435,1.359723 0.96526,2.039592"
         id="path14" /><path
         fill="none"
         stroke-width="0.0854555"
         stroke-linecap="butt"
         stroke-opacity="1"
         stroke="#000000"
         stroke-linejoin="round"
         d="m 268.01931,63.228681 c 0.17272,-0.322734 0.34507,-0.645698 0.51749,-0.96847"
         id="path15" /><path
         fill="none"
         stroke-width="0.0854555"
         stroke-linecap="butt"
         stroke-opacity="1"
         stroke="#000000"
         stroke-linejoin="round"
         d="m 304.58336,77.303919 c -0.004,-0.0019 -0.0639,-0.01701 -0.0881,-0.02305"
         id="path16" /><path
         fill="none"
         stroke-width="0.0854555"
         stroke-linecap="butt"
         stroke-opacity="1"
         stroke="#000000"
         stroke-linejoin="round"
         d="m 309.30059,83.152835 c 0.47928,-1.382849 1.20627,-2.884225 1.53517,-4.19484 -4.09682,-1.083745 -8.19353,-2.167646 -12.29031,-3.25141"
         id="path17" /><path
         fill="none"
         stroke-width="0.0854555"
         stroke-linecap="butt"
         stroke-opacity="1"
         stroke="#000000"
         stroke-linejoin="round"
         d="m 304.16712,77.193844 c -1.87389,-0.495866 -3.74778,-0.991574 -5.62167,-1.487259"
         id="path18" /><path
         fill="none"
         stroke-width="0.0854555"
         stroke-linecap="butt"
         stroke-opacity="1"
         stroke="#000000"
         stroke-linejoin="round"
         d="m 303.9806,89.253479 c 0.99984,-0.891579 1.99964,-1.783192 2.99955,-2.674729"
         id="path19" /><path
         fill="none"
         stroke-width="0.0854555"
         stroke-linecap="butt"
         stroke-opacity="1"
         stroke="#000000"
         stroke-linejoin="round"
         d="m 306.91794,86.634158 c -0.49247,0.439181 -0.98495,0.878384 -1.47746,1.317524"
         id="path20" /><path
         fill="none"
         stroke-width="0.0854555"
         stroke-linecap="butt"
         stroke-opacity="1"
         stroke="#000000"
         stroke-linejoin="round"
         d="m 268.28184,62.737361 c 0.0915,-0.171175 0.18293,-0.342349 0.27439,-0.513501"
         id="path21" /><path
         fill="none"
         stroke-width="0.0854555"
         stroke-linecap="butt"
         stroke-opacity="1"
         stroke="#000000"
         stroke-linejoin="round"
         d="m 268.6938,61.966534 c -0.0461,0.08579 -0.0918,0.171515 -0.13757,0.25731"
         id="path22" /><path
         fill="none"
         stroke-width="0.0854555"
         stroke-linecap="butt"
         stroke-opacity="1"
         stroke="#000000"
         stroke-linejoin="round"
         d="m 268.6938,61.966534 c -0.0525,0.09789 -0.10469,0.195742 -0.15685,0.293669"
         id="path23" /><path
         fill="none"
         stroke-width="0.0854555"
         stroke-linecap="butt"
         stroke-opacity="1"
         stroke="#000000"
         stroke-linejoin="round"
         d="m 304.58336,55.78686 c -0.0151,-0.01172 -0.0718,-0.06467 -0.0881,-0.07914"
         id="path24" /><path
         fill="none"
         stroke-width="0.0854555"
         stroke-linecap="butt"
         stroke-opacity="1"
         stroke="#000000"
         stroke-linejoin="round"
         d="m 304.49545,55.707732 c 0.98045,0.882187 1.96116,1.764117 2.94161,2.646281"
         id="path26" /><path
         fill="none"
         stroke-width="0.0854555"
         stroke-linecap="butt"
         stroke-opacity="1"
         stroke="#000000"
         stroke-linejoin="round"
         d="m 305.44048,56.557842 c -0.76766,-0.690402 -1.53513,-1.380967 -2.30275,-2.071457"
         id="path27" /><path
         fill="none"
         stroke-width="0.0854555"
         stroke-linecap="butt"
         stroke-opacity="1"
         stroke="#000000"
         stroke-linejoin="round"
         d="m 304.16712,55.412332 c -0.34318,-0.308599 -0.68628,-0.61728 -1.02939,-0.925947"
         id="path28" /><path
         fill="none"
         stroke-width="0.0854555"
         stroke-linecap="butt"
         stroke-opacity="1"
         stroke="#000000"
         stroke-linejoin="round"
         d="m 304.57724,65.006551 c -2.16098,0.420507 -4.37907,0.852265 -6.55979,1.276573"
         id="path29" /><path
         fill="none"
         stroke-width="0.0854555"
         stroke-linecap="butt"
         stroke-opacity="1"
         stroke="#000000"
         stroke-linejoin="round"
         d="m 304.16712,77.193844 v 0"
         id="path30" /><path
         fill="none"
         stroke-width="0.0854555"
         stroke-linecap="butt"
         stroke-opacity="1"
         stroke="#000000"
         stroke-linejoin="round"
         d="m 304.40546,55.626793 c -0.0794,-0.07147 -0.15874,-0.142979 -0.23849,-0.21445"
         id="path31" /><path
         fill="none"
         stroke-width="0.0854555"
         stroke-linecap="butt"
         stroke-opacity="1"
         stroke="#000000"
         stroke-linejoin="round"
         d="m 268.61803,81.399944 c 0.0265,0.05329 0.0503,0.106733 0.0756,0.159987"
         id="path33" /><path
         fill="none"
         stroke-width="0.0854555"
         stroke-linecap="butt"
         stroke-opacity="1"
         stroke="#000000"
         stroke-linejoin="round"
         d="m 306.98015,86.57875 c 0.7734,-1.142003 1.54685,-2.283949 2.32044,-3.425915"
         id="path34" /><path
         fill="none"
         stroke-width="0.0854555"
         stroke-linecap="butt"
         stroke-opacity="1"
         stroke="#000000"
         stroke-linejoin="round"
         d="m 304.49545,77.280596 c 0.31483,0.08349 0.63005,0.166677 0.94503,0.250091"
         id="path36" /><path
         fill="none"
         stroke-width="0.0854555"
         stroke-linecap="butt"
         stroke-opacity="1"
         stroke="#000000"
         stroke-linejoin="round"
         d="m 304.38615,77.251765 c -0.19616,-0.05189 -0.3704,-0.098 0,0 z"
         id="path37" /><path
         fill="none"
         stroke-width="0.0854555"
         stroke-linecap="butt"
         stroke-opacity="1"
         stroke="#000000"
         stroke-linejoin="round"
         d="m 304.40546,55.626793 c 1.01049,0.909071 2.02114,1.818074 3.0316,2.72722"
         id="path38" /><path
         fill="none"
         stroke-width="0.0854555"
         stroke-linecap="butt"
         stroke-opacity="1"
         stroke="#000000"
         stroke-linejoin="round"
         d="m 303.13773,54.486385 c 0.42259,0.380153 0.84514,0.760267 1.26773,1.140408"
         id="path39" /><path
         fill="none"
         stroke-width="0.0854555"
         stroke-linecap="butt"
         stroke-opacity="1"
         stroke="#000000"
         stroke-linejoin="round"
         d="m 298.54545,75.706585 c 1.94688,0.515017 3.89379,1.030053 5.8407,1.54518"
         id="path40" /><path
         fill="none"
         stroke-width="0.0854555"
         stroke-linecap="butt"
         stroke-opacity="1"
         stroke="#000000"
         stroke-linejoin="round"
         d="m 269.90053,59.707817 c -0.40225,0.752731 -0.80466,1.506323 -1.20673,2.258547"
         id="path41" /><path
         fill="none"
         stroke-width="0.0854555"
         stroke-linecap="butt"
         stroke-opacity="1"
         stroke="#000000"
         stroke-linejoin="round"
         d="m 268.6938,61.966364 c 0.40222,-0.752859 0.80448,-1.505692 1.20673,-2.258547"
         id="path42" /><path
         fill="none"
         stroke-width="0.0854555"
         stroke-linecap="butt"
         stroke-opacity="1"
         stroke="#000000"
         stroke-linejoin="round"
         d="m 268.29272,62.71708 c -0.0915,0.170495 -0.18217,0.341103 -0.27326,0.511601"
         id="path43" /><path
         fill="none"
         stroke-width="0.0854555"
         stroke-linecap="butt"
         stroke-opacity="1"
         stroke="#000000"
         stroke-linejoin="round"
         d="m 268.5368,62.260211 c 0.45453,-0.850809 0.90913,-1.701596 1.36373,-2.552394"
         id="path44" /><path
         fill="none"
         stroke-width="0.0854555"
         stroke-linecap="butt"
         stroke-opacity="1"
         stroke="#000000"
         stroke-linejoin="round"
         d="M 269.93614,84.184707 C 269.49677,83.2565 269.0574,82.328218 268.61803,81.399944"
         id="path45" /><path
         fill="none"
         stroke-width="0.0854555"
         stroke-linecap="butt"
         stroke-opacity="1"
         stroke="#000000"
         stroke-linejoin="round"
         d="m 268.01931,63.228681 c -0.50279,2.921007 -1.00573,5.841992 -1.50852,8.762988"
         id="path46" /><g
         id="g1"
         transform="matrix(1.0818056,0,0,1.0818056,256.76154,85.874458)"><circle
           fill="#6666ff"
           cx="25"
           cy="20"
           r="3.2"
           id="circle1" /><circle
           fill="#6666ff"
           cx="35"
           cy="20"
           r="3.2"
           id="circle2" /></g><rect
         style="fill:none;fill-rule:evenodd;stroke:#000000;stroke-width:0.112591;stroke-dasharray:none;stroke-opacity:1"
         id="rect14"
         width="39.119057"
         height="35.649105"
         x="268.75491"
         y="96.282021" /><path
         style="fill:none;stroke:#000000;stroke-width:0.132;stroke-linecap:round;stroke-linejoin:round;stroke-dasharray:none;stroke-opacity:1;paint-order:markers stroke fill"
         d="m 272.06733,110.50355 8.10676,-11.409511 h -8.10676 z"
         id="path15-2" /></g></g></svg>
