<?xml version="1.0" encoding="UTF-8" standalone="no"?>
<svg
   version="1.1"
   width="1920"
   height="1080"
   id="svg13"
   sodipodi:docname="G.svg"
   inkscape:version="1.3 (0e150ed6c4, 2023-07-21)"
   xml:space="preserve"
   xmlns:inkscape="http://www.inkscape.org/namespaces/inkscape"
   xmlns:sodipodi="http://sodipodi.sourceforge.net/DTD/sodipodi-0.dtd"
   xmlns="http://www.w3.org/2000/svg"
   xmlns:svg="http://www.w3.org/2000/svg"><defs
     id="defs13" /><sodipodi:namedview
     id="namedview13"
     pagecolor="#ffffff"
     bordercolor="#000000"
     borderopacity="0.25"
     inkscape:showpageshadow="2"
     inkscape:pageopacity="0.0"
     inkscape:pagecheckerboard="0"
     inkscape:deskcolor="#d1d1d1"
     inkscape:zoom="4.9958334"
     inkscape:cx="301.75146"
     inkscape:cy="302.95246"
     inkscape:window-width="1920"
     inkscape:window-height="974"
     inkscape:window-x="-11"
     inkscape:window-y="-11"
     inkscape:window-maximized="1"
     inkscape:current-layer="strokes"
     showgrid="false" /><g
     id="ViewLayer_LineSet"
     inkscape:label="ViewLayer_LineSet"
     transform="matrix(1,0,0,-1,6.9066573e-8,1126.303)"><g
       inkscape:groupmode="layer"
       id="strokes"
       inkscape:label="strokes"><path
         fill="none"
         stroke-width="0.131669"
         stroke-linecap="butt"
         stroke-opacity="1"
         stroke="#000000"
         stroke-linejoin="round"
         d="m 178.53083,921.84417 c 0,-7.46412 0,-14.92824 0,-22.39236 7.96095,0 15.9219,0 23.88285,0"
         id="path1" /><path
         fill="none"
         stroke-width="0.131669"
         stroke-linecap="butt"
         stroke-opacity="1"
         stroke="#000000"
         stroke-linejoin="round"
         d="m 303.19533,897.72063 c 6.32244,0.61421 12.87249,0.94318 18.99504,-0.9933 3.14013,-1.3333 6.15089,-3.44572 7.35962,-6.7625 0.693,-1.5156 1.8797,-3.27587 2.25706,-4.63527 -4.56956,-0.72432 -9.27675,-1.79089 -13.75989,-2.30024 -1.46695,1.68115 -2.27307,4.33122 -4.85068,4.38403 -1.98207,0.72135 -3.98003,0.98947 -6.01146,0.29283 -1.9397,-0.20257 -3.50583,-1.77278 -4.8375,-3.03193 -1.20976,-2.18127 -2.34446,-4.38505 -2.28419,-6.94697 -0.58509,-3.18572 -0.0155,-6.47918 0.54919,-9.60127 1.03814,-2.02297 1.74186,-4.33416 3.98745,-5.31731 1.72158,-1.46656 4.22654,-1.46218 6.36157,-1.66192 2.81102,0.18902 5.42945,1.01579 7.88129,2.39466 2.06086,0.39477 0.86269,2.86371 1.17843,4.36916 -0.1401,1.02743 -2.11964,0.21546 -3.02837,0.47427 -2.13968,0.0883 -4.63217,-0.17624 -6.55223,0.13167 0.0874,3.07775 -0.17509,6.50545 0.13167,9.36387 7.33219,0 14.66437,0 21.99656,0 -0.0776,-6.48268 0.15549,-13.15461 -0.11706,-19.51855 -3.89757,-1.8824 -7.65373,-4.21479 -11.64121,-5.8112 -5.04067,-0.45986 -10.0603,-1.96948 -15.12767,-1.09679 -3.44053,0.0471 -6.73027,1.32143 -9.80615,2.70789 -2.34073,1.69992 -4.78607,3.29726 -6.19106,5.91508 -1.98948,2.389 -2.73946,5.52872 -3.65091,8.426 -0.45616,3.5406 -0.87984,7.0811 -0.16222,10.61881 0.15638,3.17848 1.63745,6.14592 2.95623,8.964 1.88574,2.37681 3.57015,4.97273 6.38277,6.3405 2.28351,1.96241 5.20707,2.39087 7.98372,3.29448 z"
         id="path2" /><path
         fill="none"
         stroke-width="0.131669"
         stroke-linecap="butt"
         stroke-opacity="1"
         stroke="#000000"
         stroke-linejoin="round"
         d="m 310.38737,827.50073 c 6.35837,-0.42773 15.76329,3.51048 19.51899,5.05392 13.04092,6.13968 16.60649,12.22511 19.7806,16.04951 2.15993,4.03167 4.62884,7.93114 5.69032,12.43281 1.12818,2.78062 1.64158,5.67426 1.58582,8.67248 0.38568,4.80189 0.14385,9.66726 -0.39,14.42707 -0.91135,2.8205 -1.8231,5.64088 -2.73437,8.46142"
         id="path3"
         sodipodi:nodetypes="ccccccc" /><path
         fill="none"
         stroke-width="0.131669"
         stroke-linecap="butt"
         stroke-opacity="1"
         stroke="#000000"
         stroke-linejoin="round"
         d="M 311.5703,827.50611 H 270.46778"
         id="path4"
         sodipodi:nodetypes="cc" /><path
         fill="none"
         stroke-width="0.131669"
         stroke-linecap="butt"
         stroke-opacity="1"
         stroke="#000000"
         stroke-linejoin="round"
         d="m 353.83873,892.59794 c -2.22442,3.88489 -3.87879,8.16864 -7.22123,11.27122 -3.1216,3.91824 -9.08115,7.0417 -12.9697,10.13743 -4.10615,2.09893 -8.08015,4.52048 -12.62808,5.54075 -3.65368,1.46759 -7.57247,1.91044 -11.44894,2.27542"
         id="path5"
         sodipodi:nodetypes="ccccc" /><path
         fill="none"
         stroke-width="0.131669"
         stroke-linecap="butt"
         stroke-opacity="1"
         stroke="#000000"
         stroke-linejoin="round"
         d="m 202.41368,899.45181 c 0,-16.51782 0,-33.03565 0,-49.55348 -7.96095,0 -15.9219,0 -23.88285,0"
         id="path8" /><path
         fill="none"
         stroke-width="0.131669"
         stroke-linecap="butt"
         stroke-opacity="1"
         stroke="#000000"
         stroke-linejoin="round"
         d="m 218.57929,827.50611 c 17.29617,0 34.59233,0 51.88849,0"
         id="path9" /><path
         fill="none"
         stroke-width="0.131669"
         stroke-linecap="butt"
         stroke-opacity="1"
         stroke="#000000"
         stroke-linejoin="round"
         d="m 178.53083,827.50611 c 13.34949,0 26.69898,0 40.04846,0"
         id="path10" /><path
         fill="none"
         stroke-width="0.131669"
         stroke-linecap="butt"
         stroke-opacity="1"
         stroke="#000000"
         stroke-linejoin="round"
         d="m 178.53083,827.50611 c 0,7.46407 0,14.92815 0,22.39222"
         id="path11" /><path
         fill="none"
         stroke-width="0.131669"
         stroke-linecap="butt"
         stroke-opacity="1"
         stroke="#000000"
         stroke-linejoin="round"
         d="m 178.53083,921.84417 c 25.92064,0 51.84127,0 77.76191,0"
         id="path12" /><path
         fill="none"
         stroke-width="0.131669"
         stroke-linecap="butt"
         stroke-opacity="1"
         stroke="#000000"
         stroke-linejoin="round"
         d="M 256.29274,921.84417 H 309.7477"
         id="path13"
         sodipodi:nodetypes="cc" /><g
         id="g1"
         transform="matrix(1.1398727,0,0,-1.1398727,214.92231,902.21903)"><circle
           fill="#6666ff"
           cx="25"
           cy="20"
           r="3.2"
           id="circle1" /><circle
           fill="#6666ff"
           cx="25"
           cy="30"
           r="3.2"
           id="circle2" /><circle
           fill="#6666ff"
           cx="35"
           cy="20"
           r="3.2"
           id="circle3" /><circle
           fill="#6666ff"
           cx="35"
           cy="30"
           r="3.2"
           id="circle4" /></g><rect
         style="fill:none;fill-rule:evenodd;stroke:#000000;stroke-width:0.123988;stroke-dasharray:none;stroke-opacity:1"
         id="rect14"
         width="39.107658"
         height="43.244045"
         x="228.87935"
         y="-892.86908"
         transform="scale(1,-1)" /><path
         style="fill:none;stroke:#000000;stroke-width:0.132;stroke-linecap:round;stroke-linejoin:round;stroke-dasharray:none;stroke-opacity:1;paint-order:markers stroke fill"
         d="m 231.38542,878.0527 8.10676,11.40951 h -8.10676 z"
         id="path15" /></g></g></svg>
