<?xml version="1.0" encoding="UTF-8" standalone="no"?>
<svg
   version="1.1"
   width="1920"
   height="1080"
   id="svg11"
   sodipodi:docname="P.svg"
   inkscape:version="1.3 (0e150ed6c4, 2023-07-21)"
   xml:space="preserve"
   xmlns:inkscape="http://www.inkscape.org/namespaces/inkscape"
   xmlns:sodipodi="http://sodipodi.sourceforge.net/DTD/sodipodi-0.dtd"
   xmlns="http://www.w3.org/2000/svg"
   xmlns:svg="http://www.w3.org/2000/svg"><defs
     id="defs11" /><sodipodi:namedview
     id="namedview11"
     pagecolor="#ffffff"
     bordercolor="#000000"
     borderopacity="0.25"
     inkscape:showpageshadow="2"
     inkscape:pageopacity="0.0"
     inkscape:pagecheckerboard="0"
     inkscape:deskcolor="#d1d1d1"
     inkscape:zoom="7.0651753"
     inkscape:cx="540.18475"
     inkscape:cy="277.48781"
     inkscape:window-width="1920"
     inkscape:window-height="974"
     inkscape:window-x="-11"
     inkscape:window-y="-11"
     inkscape:window-maximized="1"
     inkscape:current-layer="strokes" /><g
     id="ViewLayer_LineSet"
     inkscape:label="ViewLayer_LineSet"
     transform="matrix(1,0,0,-1,0,1176.733)"><g
       inkscape:groupmode="layer"
       id="strokes"
       inkscape:label="strokes"><path
         fill="none"
         stroke-width="0.130671"
         stroke-linecap="butt"
         stroke-opacity="1"
         stroke="#000000"
         stroke-linejoin="round"
         d="m 517.27626,943.00989 c -0.0436,0 -0.21831,0 -0.26212,0"
         id="path1" /><path
         fill="none"
         stroke-width="0.130671"
         stroke-linecap="butt"
         stroke-opacity="1"
         stroke="#000000"
         stroke-linejoin="round"
         d="m 503.26025,943.00989 c -0.9238,0 -1.8476,0 -2.7714,0"
         id="path2" /><path
         fill="none"
         stroke-width="0.130671"
         stroke-linecap="butt"
         stroke-opacity="1"
         stroke="#000000"
         stroke-linejoin="round"
         d="m 528.20727,990.23107 c 0.43746,-2.52918 1.33552,-5.06055 0.39071,-7.58323 -0.0421,-1.9593 -1.16439,-3.41923 -2.41637,-4.81913 -1.36687,-2.16274 -4.15617,-2.60534 -6.28239,-3.7675 -4.72777,-0.67733 -9.47906,-0.93069 -14.2524,-0.78612 -0.64333,-0.58406 -0.11034,-2.34445 -0.28473,-3.39744 -0.0864,-3.45931 0.17321,-7.26455 -0.13067,-10.50633 -4.52392,0 -9.04783,0 -13.57174,0 0,12.49152 0,24.98305 0,37.47457 7.94758,-0.085 15.91494,0.17316 23.84965,-0.13512 2.7566,-0.34999 5.62802,-0.30577 8.01457,-1.92608 2.32451,-0.65515 3.2234,-2.84084 4.68337,-4.55362 z"
         id="path3" /><path
         fill="none"
         stroke-width="0.130671"
         stroke-linecap="butt"
         stroke-opacity="1"
         stroke="#000000"
         stroke-linejoin="round"
         d="m 515.50215,986.63579 c -1.84045,3.29367 -6.1052,2.44743 -9.25987,2.58885 -1.60955,0.3579 -0.59999,-1.90331 -0.88019,-2.87476 0.087,-1.78379 -0.17406,-3.91559 0.13067,-5.48164 3.25918,0.17997 7.46747,-0.70529 9.75719,2.21147 0.81746,1.06546 0.57848,2.35937 0.2522,3.55608 z"
         id="path4" /><path
         fill="none"
         stroke-width="0.130671"
         stroke-linecap="butt"
         stroke-opacity="1"
         stroke="#000000"
         stroke-linejoin="round"
         d="m 592.31896,919.58897 v 93.62303 h -55.6877"
         id="path5"
         sodipodi:nodetypes="ccc" /><path
         fill="none"
         stroke-width="0.130671"
         stroke-linecap="butt"
         stroke-opacity="1"
         stroke="#000000"
         stroke-linejoin="round"
         d="m 536.63126,1036.6237 c 0,-7.8039 0,-15.6078 0,-23.4117"
         id="path6" /><path
         fill="none"
         stroke-width="0.130671"
         stroke-linecap="butt"
         stroke-opacity="1"
         stroke="#000000"
         stroke-linejoin="round"
         d="m 481.13598,1036.6237 c 0,-7.8039 0,-15.6078 0,-23.4117 -9.75289,0 -19.50576,0 -29.25865,0"
         id="path7" /><path
         fill="none"
         stroke-width="0.130671"
         stroke-linecap="butt"
         stroke-opacity="1"
         stroke="#000000"
         stroke-linejoin="round"
         d="m 481.12657,943.00989 c 0,-7.80697 0,-15.61394 0,-23.42092 -9.74975,0 -19.49949,0 -29.24924,0 0,31.20769 0,62.41537 0,93.62303"
         id="path8" /><path
         fill="none"
         stroke-width="0.130671"
         stroke-linecap="butt"
         stroke-opacity="1"
         stroke="#000000"
         stroke-linejoin="round"
         d="m 538.167,943.00989 v -23.42092 h 54.15196"
         id="path9"
         sodipodi:nodetypes="ccc" /><path
         fill="none"
         stroke-width="0.130671"
         stroke-linecap="butt"
         stroke-opacity="1"
         stroke="#000000"
         stroke-linejoin="round"
         d="m 481.13598,1036.6237 h 55.49528"
         id="path10"
         sodipodi:nodetypes="cc" /><path
         fill="none"
         stroke-width="0.130671"
         stroke-linecap="butt"
         stroke-opacity="1"
         stroke="#000000"
         stroke-linejoin="round"
         d="M 538.167,943.00989 H 481.12657"
         id="path11"
         sodipodi:nodetypes="cc" /><g
         id="g1"
         transform="matrix(1.1312338,0,0,-1.1312338,527.47694,1011.8586)"><circle
           fill="#6666ff"
           cx="25"
           cy="20"
           r="3.2"
           id="circle1" /><circle
           fill="#6666ff"
           cx="25"
           cy="30"
           r="3.2"
           id="circle2" /><circle
           fill="#6666ff"
           cx="25"
           cy="40"
           r="3.2"
           id="circle3" /><circle
           fill="#6666ff"
           cx="35"
           cy="20"
           r="3.2"
           id="circle4" /></g><rect
         style="fill:none;fill-rule:evenodd;stroke:#000000;stroke-width:0.123988;stroke-dasharray:none;stroke-opacity:1"
         id="rect14"
         width="39.107658"
         height="43.244045"
         x="538.57281"
         y="-998.01526"
         transform="scale(1,-1)" /><path
         style="fill:none;stroke:#000000;stroke-width:0.132;stroke-linecap:round;stroke-linejoin:round;stroke-dasharray:none;stroke-opacity:1;paint-order:markers stroke fill"
         d="m 541.07888,983.19891 8.10676,11.4095 h -8.10676 z"
         id="path15" /></g></g></svg>
