<?xml version="1.0" encoding="UTF-8" standalone="no"?>
<svg
   version="1.1"
   width="1920"
   height="1080"
   id="svg18"
   sodipodi:docname="T.svg"
   inkscape:version="1.3 (0e150ed6c4, 2023-07-21)"
   xml:space="preserve"
   xmlns:inkscape="http://www.inkscape.org/namespaces/inkscape"
   xmlns:sodipodi="http://sodipodi.sourceforge.net/DTD/sodipodi-0.dtd"
   xmlns="http://www.w3.org/2000/svg"
   xmlns:svg="http://www.w3.org/2000/svg"><defs
     id="defs18" /><sodipodi:namedview
     id="namedview18"
     pagecolor="#ffffff"
     bordercolor="#000000"
     borderopacity="0.25"
     inkscape:showpageshadow="2"
     inkscape:pageopacity="0.0"
     inkscape:pagecheckerboard="0"
     inkscape:deskcolor="#d1d1d1"
     inkscape:zoom="2.4979166"
     inkscape:cx="434.16181"
     inkscape:cy="256.41368"
     inkscape:window-width="1920"
     inkscape:window-height="974"
     inkscape:window-x="-11"
     inkscape:window-y="-11"
     inkscape:window-maximized="1"
     inkscape:current-layer="strokes" /><g
     id="ViewLayer_LineSet"
     inkscape:label="ViewLayer_LineSet"
     transform="matrix(1,0,0,-1,0,1070.206)"><g
       inkscape:groupmode="layer"
       id="strokes"
       inkscape:label="strokes"><path
         fill="none"
         stroke-width="0.131693"
         stroke-linecap="butt"
         stroke-opacity="1"
         stroke="#000000"
         stroke-linejoin="round"
         d="m 509.21781,846.60219 c 7.76771,7.76627 16.03,16.02684 23.48764,23.48291 -7.82925,-7.8276 -15.65849,-15.65522 -23.48764,-23.48291 z"
         id="path1" /><path
         fill="none"
         stroke-width="0.131693"
         stroke-linecap="butt"
         stroke-opacity="1"
         stroke="#000000"
         stroke-linejoin="round"
         d="m 532.83623,870.21587 -0.0377,-0.0377"
         id="path2" /><path
         fill="none"
         stroke-width="0.131693"
         stroke-linecap="butt"
         stroke-opacity="1"
         stroke="#000000"
         stroke-linejoin="round"
         d="m 556.4075,893.77766 v 0"
         id="path3" /><path
         fill="none"
         stroke-width="0.131693"
         stroke-linecap="butt"
         stroke-opacity="1"
         stroke="#000000"
         stroke-linejoin="round"
         d="m 492.6434,893.78241 c 21.25312,-0.003 42.51888,0.006 63.7641,-0.005"
         id="path4" /><path
         fill="none"
         stroke-width="0.131693"
         stroke-linecap="butt"
         stroke-opacity="1"
         stroke="#000000"
         stroke-linejoin="round"
         d="m 414.86685,893.78241 c 0,-7.46548 0,-14.93096 0,-22.39644 7.86806,0 15.73613,0 23.6042,0"
         id="path5" /><path
         fill="none"
         stroke-width="0.131693"
         stroke-linecap="butt"
         stroke-opacity="1"
         stroke="#000000"
         stroke-linejoin="round"
         d="m 455.62875,890.4913 c 15.73459,0 31.46919,0 47.20379,0 -0.087,-3.8414 0.17454,-8.03139 -0.1317,-11.65356 -5.23556,0 -10.47111,0 -15.70667,0 0,-11.85008 0,-23.70016 0,-35.55024 -5.17723,0 -10.35444,0 -15.53166,0 0,11.85008 0,23.70016 0,35.55024 -5.27792,0 -10.55584,0 -15.83376,0 0,3.88452 0,7.76904 0,11.65356 z"
         id="path6" /><path
         fill="none"
         stroke-width="0.131693"
         stroke-linecap="butt"
         stroke-opacity="1"
         stroke="#000000"
         stroke-linejoin="round"
         d="m 532.78908,870.16872 c 7.87273,7.86974 15.74557,15.73935 23.61842,23.60894"
         id="path7" /><path
         fill="none"
         stroke-width="0.131693"
         stroke-linecap="butt"
         stroke-opacity="1"
         stroke="#000000"
         stroke-linejoin="round"
         d="m 438.47105,871.38597 c 0,-16.52094 0,-33.04188 0,-49.56282 -7.86807,0 -15.73614,0 -23.6042,0"
         id="path8" /><path
         fill="none"
         stroke-width="0.131693"
         stroke-linecap="butt"
         stroke-opacity="1"
         stroke="#000000"
         stroke-linejoin="round"
         d="m 556.4075,893.77766 c -0.52935,-0.52902 -1.05852,-1.05822 -1.58795,-1.58716"
         id="path9" /><path
         fill="none"
         stroke-width="0.131693"
         stroke-linecap="butt"
         stroke-opacity="1"
         stroke="#000000"
         stroke-linejoin="round"
         d="m 532.83623,870.21587 c 7.32774,7.32491 14.65563,14.64966 21.98332,21.97463"
         id="path10" /><path
         fill="none"
         stroke-width="0.131693"
         stroke-linecap="butt"
         stroke-opacity="1"
         stroke="#000000"
         stroke-linejoin="round"
         d="m 509.21781,846.60219 c 15.7259,-15.72757 31.4542,-31.45275 47.18496,-47.17548 -33.82665,0 -67.65329,0 -101.47992,0"
         id="path11" /><path
         fill="none"
         stroke-width="0.131693"
         stroke-linecap="butt"
         stroke-opacity="1"
         stroke="#000000"
         stroke-linejoin="round"
         d="m 555.29667,892.66736 c 0.5713,0.57091 1.58222,1.58164 0.45882,0.45855 -15.51253,-15.50793 -31.0252,-31.01573 -46.53768,-46.52372"
         id="path12" /><path
         fill="none"
         stroke-width="0.131693"
         stroke-linecap="butt"
         stroke-opacity="1"
         stroke="#000000"
         stroke-linejoin="round"
         d="m 414.86685,821.82315 c 0,-7.46548 0,-14.93096 0,-22.39644"
         id="path13" /><path
         fill="none"
         stroke-width="0.131693"
         stroke-linecap="butt"
         stroke-opacity="1"
         stroke="#000000"
         stroke-linejoin="round"
         d="m 454.92285,799.42671 c -13.352,0 -26.704,0 -40.056,0"
         id="path14" /><path
         fill="none"
         stroke-width="0.131693"
         stroke-linecap="butt"
         stroke-opacity="1"
         stroke="#000000"
         stroke-linejoin="round"
         d="m 414.86685,893.78241 c 25.92551,0 51.85103,0 77.77655,0"
         id="path15" /><path
         fill="none"
         stroke-width="0.131693"
         stroke-linecap="butt"
         stroke-opacity="1"
         stroke="#000000"
         stroke-linejoin="round"
         d="m 509.21781,846.60219 c 7.85703,7.85556 15.71407,15.71113 23.57127,23.56653"
         id="path16" /><path
         fill="none"
         stroke-width="0.131693"
         stroke-linecap="butt"
         stroke-opacity="1"
         stroke="#000000"
         stroke-linejoin="round"
         d="m 553.21144,890.58291 c 0.695,0.6949 1.39023,1.38956 2.08523,2.08445"
         id="path17" /><path
         fill="none"
         stroke-width="0.131693"
         stroke-linecap="butt"
         stroke-opacity="1"
         stroke="#000000"
         stroke-linejoin="round"
         d="m 554.81955,892.1905 c -7.32459,-7.32179 -14.64925,-14.64349 -21.97397,-21.96515"
         id="path18" /><g
         id="g1"
         transform="matrix(1.1400882,0,0,-1.1400882,445.27995,856.73106)"><circle
           fill="#6666ff"
           cx="25"
           cy="30"
           r="3.2"
           id="circle1" /><circle
           fill="#6666ff"
           cx="25"
           cy="40"
           r="3.2"
           id="circle2" /><circle
           fill="#6666ff"
           cx="35"
           cy="20"
           r="3.2"
           id="circle3" /><circle
           fill="#6666ff"
           cx="35"
           cy="30"
           r="3.2"
           id="circle4" /></g><rect
         style="fill:none;fill-rule:evenodd;stroke:#000000;stroke-width:0.115178;stroke-dasharray:none;stroke-opacity:1"
         id="rect14"
         width="39.11647"
         height="37.308205"
         x="457.86679"
         y="-839.6347"
         transform="scale(1,-1)" /><path
         style="fill:none;stroke:#000000;stroke-width:0.126725;stroke-linecap:round;stroke-linejoin:round;stroke-dasharray:none;stroke-opacity:1;paint-order:markers stroke fill"
         d="m 460.37508,825.97862 8.10779,10.51457 h -8.10779 z"
         id="path15-8" /></g></g></svg>
