<?xml version="1.0" encoding="UTF-8" standalone="no"?>
<svg
   version="1.1"
   width="1920"
   height="1080"
   id="svg9"
   sodipodi:docname="5-3.svg"
   inkscape:version="1.3 (0e150ed6c4, 2023-07-21)"
   xml:space="preserve"
   xmlns:inkscape="http://www.inkscape.org/namespaces/inkscape"
   xmlns:sodipodi="http://sodipodi.sourceforge.net/DTD/sodipodi-0.dtd"
   xmlns="http://www.w3.org/2000/svg"
   xmlns:svg="http://www.w3.org/2000/svg"><defs
     id="defs9" /><sodipodi:namedview
     id="namedview9"
     pagecolor="#ffffff"
     bordercolor="#000000"
     borderopacity="0.25"
     inkscape:showpageshadow="2"
     inkscape:pageopacity="0.0"
     inkscape:pagecheckerboard="0"
     inkscape:deskcolor="#d1d1d1"
     showgrid="false"
     inkscape:zoom="3.5325876"
     inkscape:cx="208.20432"
     inkscape:cy="205.93969"
     inkscape:window-width="1920"
     inkscape:window-height="974"
     inkscape:window-x="-11"
     inkscape:window-y="-11"
     inkscape:window-maximized="1"
     inkscape:current-layer="strokes" /><g
     id="ViewLayer_LineSet"
     inkscape:label="ViewLayer_LineSet"
     transform="matrix(1,0,0,-1,0,1091.194)"><g
       inkscape:groupmode="layer"
       id="strokes"
       inkscape:label="strokes"><path
         fill="none"
         stroke-width="0.0953941"
         stroke-linecap="butt"
         stroke-opacity="1"
         stroke="#000000"
         stroke-linejoin="round"
         d="m 259.08696,830.71691 c -13.79011,-7.23749 -27.58029,-14.47488 -41.37044,-21.71232 -13.79173,7.23744 -27.58347,14.47488 -41.3752,21.71232 0,14.47648 0,28.95296 0,43.42944"
         id="path1" /><path
         fill="none"
         stroke-width="0.0953941"
         stroke-linecap="butt"
         stroke-opacity="1"
         stroke="#000000"
         stroke-linejoin="round"
         d="m 176.34132,899.77112 c 0,15.92396 0,31.84791 0,47.77187 13.79177,7.96188 27.58344,15.92396 41.3752,23.88589 13.79019,-7.96193 27.5803,-15.92396 41.37044,-23.88589 0,-15.92396 0,-31.84791 0,-47.77187 -3.83443,-2.21398 -7.66895,-4.42781 -11.50346,-6.6417"
         id="path2" /><path
         fill="none"
         stroke-width="0.0953941"
         stroke-linecap="butt"
         stroke-opacity="1"
         stroke="#000000"
         stroke-linejoin="round"
         d="m 247.5835,893.12942 c 0,5.40349 0,10.80693 0,16.21038 -19.91288,0 -39.82575,0 -59.73863,0 0,-5.4032 0,-10.8064 0,-16.2096"
         id="path3" /><path
         fill="none"
         stroke-width="0.0427844"
         stroke-linecap="butt"
         stroke-opacity="1"
         stroke="#000000"
         stroke-linejoin="round"
         d="m 214.75432,957.06483 c 0.23086,0.8296 0.37456,1.7701 0.65988,2.53036 3.82514,0 7.65033,0 11.47548,0 -0.0282,1.23221 0.0568,2.57782 -0.0427,3.73877 -5.65418,0 -11.30837,0 -16.96251,0 -0.75562,-3.02172 -1.51123,-6.04339 -2.26683,-9.0651 2.0549,-0.16239 4.13686,-0.4548 6.17475,-0.535 0.84385,0.49501 1.68408,1.00048 2.68999,1.02975 1.19362,0.26074 2.53207,0.0444 3.52517,-0.66275 0.5532,-0.50906 0.80735,-1.15711 0.86243,-1.89779 0.0308,-0.81066 -0.1652,-1.66733 -0.78751,-2.24033 -0.73005,-0.6937 -1.83903,-0.9522 -2.82491,-0.87498 -0.71242,0.25508 -1.59539,0.26208 -2.19725,0.67782 -0.4172,0.5041 -0.73919,1.2099 -1.21611,1.58761 -2.3869,-0.17083 -4.77382,-0.34166 -7.16077,-0.51239 0.68172,-0.93283 1.13999,-2.08598 2.2364,-2.6101 0.75327,-0.63112 1.62785,-1.01062 2.58132,-1.22633 1.15221,-0.44337 2.35431,-0.61749 3.58382,-0.64495 1.71182,-0.19771 3.42489,-0.16953 5.13869,-0.0124 1.16491,0.12404 2.34442,0.39499 3.44785,0.77725 1.01352,0.44968 2.00862,0.92692 2.76616,1.76104 0.65779,0.54931 1.07777,1.37446 1.41388,2.13991 0.18032,0.78679 0.37424,1.57413 0,2.33717 -0.15842,0.7018 -0.33929,1.39006 -0.98288,1.79991 -0.64552,0.66362 -1.29934,1.31466 -2.22452,1.54951 -0.98216,0.44372 -1.97181,0.85791 -3.0683,0.85485 -1.35119,0.2032 -2.7043,0.27351 -4.06118,0.0802 -0.93424,-0.0902 -1.83971,-0.39851 -2.76013,-0.58191 z"
         id="path4" /><path
         fill="none"
         stroke-width="0.0768094"
         stroke-linecap="butt"
         stroke-opacity="1"
         stroke="#000000"
         stroke-linejoin="round"
         d="m 231.37928,865.70584 c 1.14056,1.40772 2.67603,2.59844 2.90347,4.508 0.38208,1.69729 1.27756,3.38353 1.32157,5.08807 -0.50369,1.47849 -0.55492,3.22212 -1.36106,4.52329 -1.51001,1.28108 -2.68286,3.11827 -4.76124,3.46179 -0.55603,0.27739 -1.79382,0.44051 -1.90894,0.79191 1.46914,1.25272 3.22127,2.30584 4.5097,3.68601 0.39159,1.56713 1.29964,3.11152 1.34669,4.69386 -0.49632,1.68394 -0.45482,3.64496 -1.95172,4.81333 -0.92492,1.15268 -1.86936,2.2786 -3.36577,2.6492 -1.75604,0.79874 -3.49278,1.67169 -5.47265,1.60856 -2.64864,0.27037 -5.29742,0.67128 -7.94514,0.17213 -1.9547,-0.14056 -3.90276,-0.30813 -5.65622,-1.26223 -1.51922,-0.53153 -2.98236,-1.15018 -4.0112,-2.44328 -1.21802,-1.00255 -2.24002,-2.14724 -2.74101,-3.66954 -0.25122,-0.75384 -1.07154,-1.80625 -0.96135,-2.37051 3.67118,-0.54913 7.46073,-1.31655 11.05729,-1.72819 0.69136,1.30215 1.0615,2.95562 1.96056,4.03062 1.49657,0.34649 2.99031,1.54208 4.49102,0.63921 0.98068,-0.33861 2.19121,-0.43044 2.31757,-1.68628 0.46806,-0.99159 0.99779,-1.98521 0.15346,-2.93599 -0.53198,-1.01137 -0.78402,-2.33786 -2.14075,-2.42112 -1.39575,-0.4507 -2.75312,-1.20761 -4.25491,-0.8124 -0.15158,-2.52556 -0.52068,-5.28793 -0.53582,-7.66501 1.77,0.1595 3.60701,1.06401 5.27401,0.0787 1.11434,-0.56332 2.88092,-0.47008 3.01545,-2.01969 0.32409,-1.41315 1.61373,-2.83015 0.69705,-4.23833 -0.52869,-1.01309 -0.61387,-2.4599 -1.43534,-3.18666 -1.32426,-0.40037 -2.63379,-1.32057 -3.96788,-1.37273 -1.14798,0.52639 -2.68485,0.6123 -3.57308,1.43292 -0.71707,1.37877 -1.31991,2.96623 -2.10856,4.2143 -3.91341,-0.47258 -7.8268,-0.94524 -11.7402,-1.41782 1.22691,-2.0266 2.17422,-4.31246 3.58015,-6.17306 1.87078,-1.12658 3.61748,-2.58486 5.56743,-3.49983 3.18226,-0.34102 6.35407,-1.04808 9.54322,-1.14745 2.56252,0.18329 5.14584,0.25414 7.5634,1.21912 1.74603,0.34111 3.0754,1.58625 4.5908,2.43907 z"
         id="path5" /><path
         fill="none"
         stroke-width="0.0953941"
         stroke-linecap="butt"
         stroke-opacity="1"
         stroke="#000000"
         stroke-linejoin="round"
         d="m 189.44198,904.54829 h 56.54908 c -0.0632,-7.206 0.1267,-14.66512 -0.0954,-21.71223 -0.65045,-0.0145 -3.95191,0.13189 -2.68665,-0.35478 5.29268,-2.77828 10.58528,-5.5567 15.87794,-8.33493"
         id="path6"
         sodipodi:nodetypes="ccccc" /><path
         fill="none"
         stroke-width="0.0953941"
         stroke-linecap="butt"
         stroke-opacity="1"
         stroke="#000000"
         stroke-linejoin="round"
         d="m 176.34132,899.77112 c 3.83452,-2.21364 7.669,-4.42733 11.50355,-6.64092"
         id="path7" /><path
         fill="none"
         stroke-width="0.0953941"
         stroke-linecap="butt"
         stroke-opacity="1"
         stroke="#000000"
         stroke-linejoin="round"
         d="m 189.44198,904.54829 c 0.0632,-7.206 -0.12668,-14.66512 0.0954,-21.71223 0.65054,-0.014 3.94895,0.1316 2.68378,-0.35478 -5.2933,-2.77828 -10.58653,-5.5567 -15.87984,-8.33493"
         id="path8"
         sodipodi:nodetypes="cccc" /><path
         fill="none"
         stroke-width="0.0953941"
         stroke-linecap="butt"
         stroke-opacity="1"
         stroke="#000000"
         stroke-linejoin="round"
         d="m 259.08696,830.71691 c 0,14.47648 0,28.95296 0,43.42944"
         id="path9" /><g
         id="g1"
         transform="matrix(1.1098636,0,0,-1.1098636,195.8896,961.11783)"><circle
           fill="#6666ff"
           cx="25"
           cy="20"
           r="3.2"
           id="circle1" /><circle
           fill="#6666ff"
           cx="35"
           cy="30"
           r="3.2"
           id="circle2" /></g><g
         id="g2"
         transform="matrix(1.1098636,0,0,-1.1098636,197.8099,874.431)"><circle
           fill="#6666ff"
           cx="25"
           cy="20"
           r="3.2"
           id="circle1-4" /><circle
           fill="#6666ff"
           cx="35"
           cy="20"
           r="3.2"
           id="circle2-2" /></g><g
         id="g3"
         transform="matrix(1.1098636,0,0,-1.1098636,173.66903,874.43023)"><circle
           fill="#6666ff"
           cx="25"
           cy="40"
           r="3.2"
           id="circle1-5" /><circle
           fill="#6666ff"
           cx="35"
           cy="20"
           r="3.2"
           id="circle2-7" /><circle
           fill="#6666ff"
           cx="35"
           cy="30"
           r="3.2"
           id="circle3" /><circle
           fill="#6666ff"
           cx="35"
           cy="40"
           r="3.2"
           id="circle4" /></g><g
         id="g8"
         transform="matrix(1.1098636,0,0,-1.1098636,174.21768,961.1179)"><circle
           fill="#6666ff"
           cx="25"
           cy="40"
           r="3.2"
           id="circle5" /><circle
           fill="#6666ff"
           cx="35"
           cy="20"
           r="3.2"
           id="circle6" /><circle
           fill="#6666ff"
           cx="35"
           cy="30"
           r="3.2"
           id="circle7" /><circle
           fill="#6666ff"
           cx="35"
           cy="40"
           r="3.2"
           id="circle8" /></g><rect
         style="fill:none;fill-rule:evenodd;stroke:#000000;stroke-width:0.120776;stroke-dasharray:none;stroke-opacity:1"
         id="rect14"
         width="50.720547"
         height="31.637583"
         x="192.8694"
         y="-943.13531"
         transform="scale(1,-1)" /><path
         style="fill:none;stroke:#000000;stroke-width:0.132;stroke-linecap:round;stroke-linejoin:round;stroke-dasharray:none;stroke-opacity:1;paint-order:markers stroke fill"
         d="m 195.37708,928.31735 8.10676,11.40951 h -8.10676 z"
         id="path15" /><rect
         style="fill:none;fill-rule:evenodd;stroke:#000000;stroke-width:0.121047;stroke-dasharray:none;stroke-opacity:1"
         id="rect14-6"
         width="47.917938"
         height="33.638977"
         x="194.25237"
         y="-857.93756"
         transform="scale(1,-1)" /><path
         style="fill:none;stroke:#000000;stroke-width:0.132;stroke-linecap:round;stroke-linejoin:round;stroke-dasharray:none;stroke-opacity:1;paint-order:markers stroke fill"
         d="m 196.7599,843.11968 8.10676,11.40951 h -8.10676 z"
         id="path15-0" /></g></g></svg>
