<?xml version="1.0" encoding="UTF-8" standalone="no"?>
<svg
   version="1.1"
   width="1920"
   height="1080"
   id="svg13"
   sodipodi:docname="A.svg"
   inkscape:version="1.3 (0e150ed6c4, 2023-07-21)"
   xml:space="preserve"
   xmlns:inkscape="http://www.inkscape.org/namespaces/inkscape"
   xmlns:sodipodi="http://sodipodi.sourceforge.net/DTD/sodipodi-0.dtd"
   xmlns="http://www.w3.org/2000/svg"
   xmlns:svg="http://www.w3.org/2000/svg"><defs
     id="defs13" /><sodipodi:namedview
     id="namedview13"
     pagecolor="#ffffff"
     bordercolor="#000000"
     borderopacity="0.25"
     inkscape:showpageshadow="2"
     inkscape:pageopacity="0.0"
     inkscape:pagecheckerboard="0"
     inkscape:deskcolor="#d1d1d1"
     inkscape:zoom="2.4979166"
     inkscape:cx="330.87574"
     inkscape:cy="300.45038"
     inkscape:window-width="1920"
     inkscape:window-height="974"
     inkscape:window-x="-11"
     inkscape:window-y="-11"
     inkscape:window-maximized="1"
     inkscape:current-layer="strokes" /><g
     id="ViewLayer_LineSet"
     inkscape:label="ViewLayer_LineSet"
     transform="matrix(1,0,0,-1,0,1205.4669)"><g
       inkscape:groupmode="layer"
       id="strokes"
       inkscape:label="strokes"><path
         fill="none"
         stroke-width="0.131694"
         stroke-linecap="butt"
         stroke-opacity="1"
         stroke="#000000"
         stroke-linejoin="round"
         d="m 420.6187,961.39476 c 15.72697,-15.72673 31.45371,-31.45369 47.18062,-47.18048"
         id="path1" /><path
         fill="none"
         stroke-width="0.131694"
         stroke-linecap="butt"
         stroke-opacity="1"
         stroke="#000000"
         stroke-linejoin="round"
         d="m 420.6187,867.03366 c -47.18062,0 -94.36124,0 -141.54185,0 0,7.46554 0,14.93109 0,22.39663"
         id="path2" /><path
         fill="none"
         stroke-width="0.131694"
         stroke-linecap="butt"
         stroke-opacity="1"
         stroke="#000000"
         stroke-linejoin="round"
         d="m 396.80201,937.81868 c -5.43219,-15.73628 -10.86421,-31.47262 -16.29628,-47.20893 4.5391,0.0837 9.33477,-0.1681 13.71216,0.12708 0.76865,2.51432 1.28056,5.36428 2.2109,7.66713 5.00648,-0.0841 10.26868,0.16845 15.1147,-0.12683 0.78662,-2.51481 1.31976,-5.36355 2.2666,-7.66738 4.63328,0 9.26655,0 13.89983,0 -5.43194,15.73633 -10.86412,31.47257 -16.29601,47.20893 -4.87063,0 -9.74127,0 -14.6119,0 z"
         id="path3" /><path
         fill="none"
         stroke-width="0.131694"
         stroke-linecap="butt"
         stroke-opacity="1"
         stroke="#000000"
         stroke-linejoin="round"
         d="m 420.6187,867.03366 c 15.72696,15.72679 31.45383,31.45366 47.18062,47.18062"
         id="path4" /><path
         fill="none"
         stroke-width="0.131694"
         stroke-linecap="butt"
         stroke-opacity="1"
         stroke="#000000"
         stroke-linejoin="round"
         d="m 467.79932,914.21428 c -15.72583,15.72265 -31.46016,31.4664 -47.18062,47.17587 -14.93583,0 -29.87165,0 -44.80749,0"
         id="path5" /><path
         fill="none"
         stroke-width="0.131694"
         stroke-linecap="butt"
         stroke-opacity="1"
         stroke="#000000"
         stroke-linejoin="round"
         d="m 403.94512,925.58004 c -1.57895,-5.65541 -3.15797,-11.3108 -4.73693,-16.9662 3.10678,0.0839 6.65756,-0.1682 9.48531,0.12682 -1.58275,5.61314 -3.1656,11.22625 -4.74838,16.83938 z"
         id="path6" /><path
         fill="none"
         stroke-width="0.131694"
         stroke-linecap="butt"
         stroke-opacity="1"
         stroke="#000000"
         stroke-linejoin="round"
         d="m 375.81121,961.39015 c -4.72589,0 -9.4518,0 -14.1777,0"
         id="path7" /><path
         fill="none"
         stroke-width="0.131694"
         stroke-linecap="butt"
         stroke-opacity="1"
         stroke="#000000"
         stroke-linejoin="round"
         d="m 302.68125,938.99352 c 0,-16.52107 0,-33.04215 0,-49.56323 -7.86814,0 -15.73627,0 -23.6044,0"
         id="path8" /><path
         fill="none"
         stroke-width="0.131694"
         stroke-linecap="butt"
         stroke-opacity="1"
         stroke="#000000"
         stroke-linejoin="round"
         d="m 312.6554,867.03366 c -0.52376,0 -1.04751,0 -1.57125,0"
         id="path9" /><path
         fill="none"
         stroke-width="0.131694"
         stroke-linecap="butt"
         stroke-opacity="1"
         stroke="#000000"
         stroke-linejoin="round"
         d="m 279.07685,938.99352 c 0,7.46555 0,14.93109 0,22.39663"
         id="path10" /><path
         fill="none"
         stroke-width="0.131694"
         stroke-linecap="butt"
         stroke-opacity="1"
         stroke="#000000"
         stroke-linejoin="round"
         d="m 302.68125,938.99352 c -7.86814,0 -15.73627,0 -23.6044,0"
         id="path11" /><path
         fill="none"
         stroke-width="0.131694"
         stroke-linecap="butt"
         stroke-opacity="1"
         stroke="#000000"
         stroke-linejoin="round"
         d="m 279.07685,961.39015 c 10.21931,0 20.43863,0 30.65796,0"
         id="path12" /><path
         fill="none"
         stroke-width="0.131694"
         stroke-linecap="butt"
         stroke-opacity="1"
         stroke="#000000"
         stroke-linejoin="round"
         d="m 361.63351,961.39015 c -17.29957,0 -34.59914,0 -51.8987,0"
         id="path13" /><circle
         fill="#6666ff"
         cx="338.29559"
         cy="-929.78387"
         r="4.6743979"
         id="circle1"
         transform="scale(1,-1)"
         style="stroke-width:1.46075" /><rect
         style="fill:none;fill-rule:evenodd;stroke:#000000;stroke-width:0.123988;stroke-dasharray:none;stroke-opacity:1"
         id="rect14"
         width="39.107658"
         height="43.244045"
         x="320.26291"
         y="-939.64935"
         transform="scale(1,-1)" /><path
         style="fill:none;stroke:#000000;stroke-width:0.132;stroke-linecap:round;stroke-linejoin:round;stroke-dasharray:none;stroke-opacity:1;paint-order:markers stroke fill"
         d="m 322.76898,924.83303 8.10676,11.40951 h -8.10676 z"
         id="path15" /></g></g></svg>
