<?xml version="1.0" encoding="UTF-8" standalone="no"?>
<svg
   version="1.1"
   width="1920"
   height="1080"
   id="svg13"
   sodipodi:docname="A.svg"
   inkscape:version="1.2.2 (b0a8486541, 2022-12-01)"
   xml:space="preserve"
   xmlns:inkscape="http://www.inkscape.org/namespaces/inkscape"
   xmlns:sodipodi="http://sodipodi.sourceforge.net/DTD/sodipodi-0.dtd"
   xmlns="http://www.w3.org/2000/svg"
   xmlns:svg="http://www.w3.org/2000/svg"><defs
     id="defs13" /><sodipodi:namedview
     id="namedview13"
     pagecolor="#ffffff"
     bordercolor="#000000"
     borderopacity="0.25"
     inkscape:showpageshadow="2"
     inkscape:pageopacity="0.0"
     inkscape:pagecheckerboard="0"
     inkscape:deskcolor="#d1d1d1"
     inkscape:zoom="2.4979166"
     inkscape:cx="315.06256"
     inkscape:cy="300.25022"
     inkscape:window-width="1920"
     inkscape:window-height="1128"
     inkscape:window-x="1920"
     inkscape:window-y="0"
     inkscape:window-maximized="1"
     inkscape:current-layer="strokes"
     showgrid="false" /><g
     id="ViewLayer_LineSet"
     inkscape:label="ViewLayer_LineSet"
     transform="matrix(1,0,0,-1,0,1205.4669)"><g
       inkscape:groupmode="layer"
       id="strokes"
       inkscape:label="strokes"><path
         fill="none"
         stroke-width="0.131694"
         stroke-linecap="butt"
         stroke-opacity="1"
         stroke="#000000"
         stroke-linejoin="round"
         d="m 327.17005,934.63839 c -5.43219,-15.7363 -10.86421,-31.4726 -16.29628,-47.2089 4.5391,0.084 9.33477,-0.1681 13.71216,0.1271 0.76865,2.5143 1.28056,5.3642 2.2109,7.6671 5.00648,-0.084 10.26868,0.1684 15.1147,-0.1268 0.78662,-2.5148 1.31976,-5.3636 2.2666,-7.6674 4.63328,0 9.26655,0 13.89983,0 -5.43194,15.7363 -10.86412,31.4726 -16.29601,47.2089 -4.87063,0 -9.74127,0 -14.6119,0 z"
         id="path3"
         style="fill:none;stroke:#0000ff" /><path
         fill="none"
         stroke-width="0.131694"
         stroke-linecap="butt"
         stroke-opacity="1"
         stroke="#000000"
         stroke-linejoin="round"
         d="m 334.31316,922.39979 c -1.57895,-5.6554 -3.15797,-11.3108 -4.73693,-16.9662 3.10678,0.084 6.65756,-0.1682 9.48531,0.1268 -1.58275,5.6131 -3.1656,11.2262 -4.74838,16.8394 z"
         id="path6"
         style="fill:none;stroke:#0000ff" /><path
         fill="none"
         stroke-width="0.131694"
         stroke-linecap="butt"
         stroke-opacity="1"
         stroke="#000000"
         stroke-linejoin="round"
         d="m 358.68056,958.00775 c 15.72046,-15.70947 31.45479,-31.45322 47.18062,-47.17587 -15.72679,-15.72696 -31.45366,-31.45383 -47.18062,-47.18062 H 217.13871 v 22.39663 h 23.6044 v 49.56323 h -23.6044 v 22.39663 z"
         id="path8"
         sodipodi:nodetypes="cccccccccc"
         style="fill:none;stroke:#000000" /><path
         fill="none"
         stroke-width="0.131694"
         stroke-linecap="butt"
         stroke-opacity="1"
         stroke="#000000"
         stroke-linejoin="round"
         d="m 312.6554,867.03366 c -0.52376,0 -1.04751,0 -1.57125,0"
         id="path9"
         style="stroke:#0000ff;fill:none" /><circle
         fill="#6666ff"
         cx="279.15274"
         cy="-922.19287"
         r="4.6743979"
         id="circle1"
         transform="scale(1,-1)"
         style="stroke-width:1.46075;stroke:#0000ff;fill:none" /><rect
         style="fill:none;fill-rule:evenodd;stroke:#0000ff;stroke-width:0.123988;stroke-dasharray:none;stroke-opacity:1"
         id="rect14"
         width="39.107658"
         height="43.244045"
         x="261.12009"
         y="-932.05835"
         transform="scale(1,-1)" /><path
         style="fill:none;stroke:#0000ff;stroke-width:0.132;stroke-linecap:round;stroke-linejoin:round;stroke-dasharray:none;stroke-opacity:1;paint-order:markers stroke fill"
         d="m 263.62613,917.24203 8.10676,11.4095 h -8.10676 z"
         id="path15" /></g></g></svg>
