<?xml version="1.0" encoding="UTF-8" standalone="no"?>
<svg
   version="1.1"
   width="1920"
   height="1080"
   id="svg11"
   sodipodi:docname="D.svg"
   inkscape:version="1.3 (0e150ed6c4, 2023-07-21)"
   xml:space="preserve"
   xmlns:inkscape="http://www.inkscape.org/namespaces/inkscape"
   xmlns:sodipodi="http://sodipodi.sourceforge.net/DTD/sodipodi-0.dtd"
   xmlns="http://www.w3.org/2000/svg"
   xmlns:svg="http://www.w3.org/2000/svg"><defs
     id="defs11" /><sodipodi:namedview
     id="namedview11"
     pagecolor="#ffffff"
     bordercolor="#000000"
     borderopacity="0.25"
     inkscape:showpageshadow="2"
     inkscape:pageopacity="0.0"
     inkscape:pagecheckerboard="0"
     inkscape:deskcolor="#d1d1d1"
     inkscape:zoom="3.5325876"
     inkscape:cx="401.83009"
     inkscape:cy="174.51797"
     inkscape:window-width="1920"
     inkscape:window-height="974"
     inkscape:window-x="-11"
     inkscape:window-y="-11"
     inkscape:window-maximized="1"
     inkscape:current-layer="strokes" /><g
     id="ViewLayer_LineSet"
     inkscape:label="ViewLayer_LineSet"
     transform="matrix(-1,0,0,1,1930.944,0)"><g
       inkscape:groupmode="layer"
       id="strokes"
       inkscape:label="strokes"><path
         fill="none"
         stroke-width="0.13067"
         stroke-linecap="butt"
         stroke-opacity="1"
         stroke="#000000"
         stroke-linejoin="round"
         d="m 1502.9744,187.80709 c 0,7.80074 0,15.60148 0,23.40223 10.9201,0 21.8401,0 32.7602,0 0,-7.80541 0,-15.61082 0,-23.41621 18.7334,0 37.4668,0 56.2001,0 0,7.80539 0,15.6108 0,23.41621 9.3581,0 18.7162,0 28.0743,0 0,-0.14256 0,-0.28513 0,-0.42769"
         id="path1" /><path
         fill="none"
         stroke-width="0.13067"
         stroke-linecap="butt"
         stroke-opacity="1"
         stroke="#000000"
         stroke-linejoin="round"
         d="m 1533.9514,117.58628 h -30.977 v 21.82168"
         id="path2"
         sodipodi:nodetypes="ccc" /><path
         fill="none"
         stroke-width="0.13067"
         stroke-linecap="butt"
         stroke-opacity="1"
         stroke="#000000"
         stroke-linejoin="round"
         d="m 1661.3037,187.80709 c -13.5153,7.80228 -27.0305,15.60463 -40.5456,23.40693 -0.2497,-0.14411 -0.4993,-0.28835 -0.7491,-0.43239"
         id="path3" /><path
         fill="none"
         stroke-width="0.13067"
         stroke-linecap="butt"
         stroke-opacity="1"
         stroke="#000000"
         stroke-linejoin="round"
         d="m 1578.9346,146.98538 c -0.087,6.78229 0.1737,13.91174 -0.1306,20.47638 -3.4672,-0.20157 -7.8749,0.66491 -10.3395,-2.34619 -2.5128,-3.81398 -1.7451,-8.75618 -1.1669,-13.03887 0.6465,-3.26176 3.919,-4.93796 7.0217,-4.89714 1.527,-0.29283 3.0711,-0.17074 4.6153,-0.19418 z"
         id="path4" /><path
         fill="none"
         stroke-width="0.13067"
         stroke-linecap="butt"
         stroke-opacity="1"
         stroke="#000000"
         stroke-linejoin="round"
         d="m 1557.3019,169.47005 c 2.7108,3.4821 6.8125,5.77351 11.256,5.92238 6.5869,1.09291 13.2964,0.37413 19.9433,0.58006 1.3361,-0.14864 3.6409,0.67131 3.0169,-1.43738 0,-12.01236 0,-24.02471 0,-36.03706 -8.02,0.17141 -16.0911,-0.41205 -24.0716,0.44611 -5.26,0.8317 -10.0764,4.40025 -11.8371,9.50617 -1.1083,2.89183 -1.1767,6.12556 -1.5296,9.17767 0.1012,4.19498 0.7007,8.35164 3.2221,11.84205 z"
         id="path5" /><path
         fill="none"
         stroke-width="0.13067"
         stroke-linecap="butt"
         stroke-opacity="1"
         stroke="#000000"
         stroke-linejoin="round"
         d="M 1533.9514,117.58628 V 94.179335 h 55.6286 v 23.406945 h 30.429"
         id="path6"
         sodipodi:nodetypes="ccccc" /><path
         fill="none"
         stroke-width="0.13067"
         stroke-linecap="butt"
         stroke-opacity="1"
         stroke="#000000"
         stroke-linejoin="round"
         d="m 1620.009,117.58628 c -0.091,0.82156 1.1541,-0.48702 1.6544,0.52267 13.2134,7.62802 26.4269,15.25624 39.6403,22.88426"
         id="path7" /><path
         fill="none"
         stroke-width="0.13067"
         stroke-linecap="butt"
         stroke-opacity="1"
         stroke="#000000"
         stroke-linejoin="round"
         d="m 1479.5674,139.40796 v 48.39913"
         id="path8"
         sodipodi:nodetypes="cc" /><path
         fill="none"
         stroke-width="0.13067"
         stroke-linecap="butt"
         stroke-opacity="1"
         stroke="#000000"
         stroke-linejoin="round"
         d="m 1479.5674,187.80709 c 7.8024,0 15.6046,0 23.407,0"
         id="path9" /><path
         fill="none"
         stroke-width="0.13067"
         stroke-linecap="butt"
         stroke-opacity="1"
         stroke="#000000"
         stroke-linejoin="round"
         d="m 1502.9744,139.40796 c -7.8024,0 -15.6046,0 -23.407,0"
         id="path10" /><path
         fill="none"
         stroke-width="0.13067"
         stroke-linecap="butt"
         stroke-opacity="1"
         stroke="#000000"
         stroke-linejoin="round"
         d="m 1661.3037,140.99321 c 0,15.60463 0,31.20925 0,46.81388"
         id="path11" /><g
         id="g1"
         transform="matrix(-1.1312358,0,0,1.1312358,1654.471,129.01355)"><circle
           fill="#6666ff"
           cx="25"
           cy="20"
           r="3.2"
           id="circle1" /><circle
           fill="#6666ff"
           cx="35"
           cy="20"
           r="3.2"
           id="circle2" /><circle
           fill="#6666ff"
           cx="35"
           cy="30"
           r="3.2"
           id="circle3" /></g><rect
         style="fill:none;fill-rule:evenodd;stroke:#000000;stroke-width:0.128121;stroke-dasharray:none;stroke-opacity:1"
         id="rect14"
         width="40.411247"
         height="44.685513"
         x="-1642.5813"
         y="144.27693"
         transform="scale(-1,1)" /><path
         style="fill:none;stroke:#000000;stroke-width:0.1364;stroke-linecap:round;stroke-linejoin:round;stroke-dasharray:none;stroke-opacity:1;paint-order:markers stroke fill"
         d="m 1639.9916,159.58708 -8.3769,-11.78982 h 8.3769 z"
         id="path15" /></g></g></svg>
