<?xml version="1.0" encoding="UTF-8" standalone="no"?>
<svg
   version="1.1"
   width="1920"
   height="1080"
   id="svg14"
   sodipodi:docname="R.svg"
   inkscape:version="1.3 (0e150ed6c4, 2023-07-21)"
   xml:space="preserve"
   xmlns:inkscape="http://www.inkscape.org/namespaces/inkscape"
   xmlns:sodipodi="http://sodipodi.sourceforge.net/DTD/sodipodi-0.dtd"
   xmlns="http://www.w3.org/2000/svg"
   xmlns:svg="http://www.w3.org/2000/svg"><defs
     id="defs14" /><sodipodi:namedview
     id="namedview14"
     pagecolor="#ffffff"
     bordercolor="#000000"
     borderopacity="0.25"
     inkscape:showpageshadow="2"
     inkscape:pageopacity="0.0"
     inkscape:pagecheckerboard="0"
     inkscape:deskcolor="#d1d1d1"
     inkscape:zoom="4.9958334"
     inkscape:cx="425.05421"
     inkscape:cy="135.81318"
     inkscape:window-width="1920"
     inkscape:window-height="974"
     inkscape:window-x="-11"
     inkscape:window-y="-11"
     inkscape:window-maximized="1"
     inkscape:current-layer="strokes" /><g
     id="ViewLayer_LineSet"
     inkscape:label="ViewLayer_LineSet"
     transform="matrix(-1,0,0,1,1927.5,0)"><g
       inkscape:groupmode="layer"
       id="strokes"
       inkscape:label="strokes"><path
         fill="none"
         stroke-width="0.130676"
         stroke-linecap="butt"
         stroke-opacity="1"
         stroke="#000000"
         stroke-linejoin="round"
         d="m 1502.9872,123.88322 v 22.08947 h -23.4079"
         id="path1"
         sodipodi:nodetypes="ccc" /><path
         fill="none"
         stroke-width="0.130676"
         stroke-linecap="butt"
         stroke-opacity="1"
         stroke="#000000"
         stroke-linejoin="round"
         d="m 1479.5793,145.97269 v 48.13416 h 23.4079"
         id="path2"
         sodipodi:nodetypes="ccc" /><path
         fill="none"
         stroke-width="0.130676"
         stroke-linecap="butt"
         stroke-opacity="1"
         stroke="#000000"
         stroke-linejoin="round"
         d="m 1620.0266,123.88322 c 0.2947,1.01362 2.3676,0.42616 3.3789,0.7945 0.4342,0.0456 0.8685,0.0916 1.3027,0.13708"
         id="path3" /><path
         fill="none"
         stroke-width="0.130676"
         stroke-linecap="butt"
         stroke-opacity="1"
         stroke="#000000"
         stroke-linejoin="round"
         d="m 1624.7082,124.8148 c 4.5695,1.48496 9.3,2.58493 13.3991,5.19346 4.2093,1.80933 7.3067,5.29 10.7337,8.2113 2.8029,3.3842 6.1483,6.39677 7.8469,10.53719 2.536,4.0682 3.6597,8.7682 5.0185,13.30348 0.4427,5.61825 0.5004,11.237 0.043,16.85643 -0.019,0.38027 -0.038,0.76053 -0.057,1.14081"
         id="path4" /><path
         fill="none"
         stroke-width="0.130676"
         stroke-linecap="butt"
         stroke-opacity="1"
         stroke="#000000"
         stroke-linejoin="round"
         d="m 1661.6927,180.05747 c -1.4851,4.56941 -2.5849,9.30005 -5.1936,13.39913 -1.8092,4.2093 -5.2899,7.30659 -8.2111,10.7336 -3.3842,2.80288 -6.3967,6.14845 -10.5373,7.84697 -4.0682,2.53607 -8.7682,3.65982 -13.3035,5.01849 -1.3867,0.21759 -3.4094,-0.11144 -4.4206,0.45435"
         id="path5" /><path
         fill="none"
         stroke-width="0.130676"
         stroke-linecap="butt"
         stroke-opacity="1"
         stroke="#000000"
         stroke-linejoin="round"
         d="m 1535.7489,194.08816 c 0,7.80728 0,15.61457 0,23.42185 -10.9206,0 -21.8411,0 -32.7617,0 0,-7.80105 0,-15.60211 0,-23.40316"
         id="path6" /><path
         fill="none"
         stroke-width="0.130676"
         stroke-linecap="butt"
         stroke-opacity="1"
         stroke="#000000"
         stroke-linejoin="round"
         d="m 1566.0807,164.86101 c 0.087,5.02697 -0.1737,10.40114 0.1307,15.21044 3.8556,-0.0864 8.057,0.17321 11.695,-0.13068 0,-12.44842 0,-24.89684 0,-37.34526 -7.2313,0.13215 -14.4925,-0.27724 -21.7032,0.22973 -3.5399,0.47424 -7.7384,0.1613 -10.1449,3.3176 -3.001,3.27134 -3.2508,8.67946 -0.9991,12.42259 1.8526,1.76578 3.4296,3.96978 6.1149,4.41136 0.888,0.30044 2.1753,0.58489 0.5978,0.98569 -4.6307,1.68852 -6.3104,6.85423 -8.5588,10.80652 -0.8259,1.73243 -2.1429,3.76168 -2.6521,5.30245 4.3888,-0.0754 8.9566,0.15147 13.2327,-0.11447 2.8429,-4.73241 4.9314,-10.04624 8.4844,-14.2629 1.2626,-0.3049 2.4781,-0.96805 3.8026,-0.83307 z"
         id="path7" /><path
         fill="none"
         stroke-width="0.130676"
         stroke-linecap="butt"
         stroke-opacity="1"
         stroke="#000000"
         stroke-linejoin="round"
         d="m 1556.933,156.86024 c -2.9305,-1.81479 -1.4034,-6.9624 2.1751,-6.53302 2.27,-0.19489 4.9103,-0.29369 6.9726,-0.031 -0.086,2.45289 0.1729,5.25085 -0.1306,7.4863 -3.025,-0.0179 -6.1529,0.23034 -9.0171,-0.92231 z"
         id="path8" /><path
         fill="none"
         stroke-width="0.130676"
         stroke-linecap="butt"
         stroke-opacity="1"
         stroke="#000000"
         stroke-linejoin="round"
         d="m 1502.9872,123.88322 h 31.1119 v -23.40788"
         id="path9"
         sodipodi:nodetypes="ccc" /><path
         fill="none"
         stroke-width="0.130676"
         stroke-linecap="butt"
         stroke-opacity="1"
         stroke="#000000"
         stroke-linejoin="round"
         d="m 1534.0991,100.47534 h 55.4972 v 23.40788 c 8.7522,0 17.5174,-10e-6 26.2613,0"
         id="path10"
         sodipodi:nodetypes="cccc" /><path
         fill="none"
         stroke-width="0.130676"
         stroke-linecap="butt"
         stroke-opacity="1"
         stroke="#000000"
         stroke-linejoin="round"
         d="m 1615.8576,123.88322 c 1.3897,0 2.7793,0 4.169,0"
         id="path11" /><path
         fill="none"
         stroke-width="0.130676"
         stroke-linecap="butt"
         stroke-opacity="1"
         stroke="#000000"
         stroke-linejoin="round"
         d="m 1591.9511,217.51001 c 0,-7.80728 0,-15.61457 0,-23.42185"
         id="path12" /><path
         fill="none"
         stroke-width="0.130676"
         stroke-linecap="butt"
         stroke-opacity="1"
         stroke="#000000"
         stroke-linejoin="round"
         d="m 1591.9511,194.08816 c -18.7341,0 -37.4681,0 -56.2022,0"
         id="path13" /><path
         fill="none"
         stroke-width="0.130676"
         stroke-linecap="butt"
         stroke-opacity="1"
         stroke="#000000"
         stroke-linejoin="round"
         d="m 1620.0266,217.51001 c -9.3585,0 -18.717,0 -28.0755,0"
         id="path14" /><g
         id="g1"
         transform="matrix(-1.1312803,0,0,1.1312803,1649.9879,127.81225)"><circle
           fill="#6666ff"
           cx="25"
           cy="20"
           r="3.2"
           id="circle1" /><circle
           fill="#6666ff"
           cx="25"
           cy="30"
           r="3.2"
           id="circle2" /><circle
           fill="#6666ff"
           cx="25"
           cy="40"
           r="3.2"
           id="circle3" /><circle
           fill="#6666ff"
           cx="35"
           cy="30"
           r="3.2"
           id="circle4" /></g><rect
         style="fill:none;fill-rule:evenodd;stroke:#000000;stroke-width:0.123988;stroke-dasharray:none;stroke-opacity:1"
         id="rect14"
         width="39.107658"
         height="43.244045"
         x="-1639.4138"
         y="141.17535"
         transform="scale(-1,1)" /><path
         style="fill:none;stroke:#000000;stroke-width:0.132;stroke-linecap:round;stroke-linejoin:round;stroke-dasharray:none;stroke-opacity:1;paint-order:markers stroke fill"
         d="m 1636.9077,155.99165 -8.1067,-11.40951 h 8.1067 z"
         id="path15" /></g></g></svg>
