<?xml version="1.0" encoding="UTF-8" standalone="no"?>
<svg
   version="1.1"
   width="1920"
   height="1080"
   id="svg36"
   sodipodi:docname="U.svg"
   inkscape:version="1.3 (0e150ed6c4, 2023-07-21)"
   xml:space="preserve"
   xmlns:inkscape="http://www.inkscape.org/namespaces/inkscape"
   xmlns:sodipodi="http://sodipodi.sourceforge.net/DTD/sodipodi-0.dtd"
   xmlns="http://www.w3.org/2000/svg"
   xmlns:svg="http://www.w3.org/2000/svg"><defs
     id="defs36" /><sodipodi:namedview
     id="namedview36"
     pagecolor="#ffffff"
     bordercolor="#000000"
     borderopacity="0.25"
     inkscape:showpageshadow="2"
     inkscape:pageopacity="0.0"
     inkscape:pagecheckerboard="0"
     inkscape:deskcolor="#d1d1d1"
     inkscape:zoom="2.4979167"
     inkscape:cx="592.29357"
     inkscape:cy="299.24937"
     inkscape:window-width="1920"
     inkscape:window-height="974"
     inkscape:window-x="-11"
     inkscape:window-y="-11"
     inkscape:window-maximized="1"
     inkscape:current-layer="strokes"
     showgrid="false" /><g
     id="ViewLayer_LineSet"
     inkscape:groupmode="lineset"
     inkscape:label="ViewLayer_LineSet"><g
       inkscape:groupmode="layer"
       id="strokes"
       inkscape:label="strokes"><path
         fill="none"
         stroke-width="0.131694"
         stroke-linecap="butt"
         stroke-opacity="1"
         stroke="#000000"
         stroke-linejoin="round"
         d="m 550.12736,213.27785 c -12.57362,0 -25.14724,0 -37.72086,0"
         id="path1" /><path
         fill="none"
         stroke-width="0.131694"
         stroke-linecap="butt"
         stroke-opacity="1"
         stroke="#000000"
         stroke-linejoin="round"
         d="m 448.64185,213.28259 v 0"
         id="path2" /><path
         fill="none"
         stroke-width="0.131694"
         stroke-linecap="butt"
         stroke-opacity="1"
         stroke="#000000"
         stroke-linejoin="round"
         d="m 448.64185,213.27785 v 0.005"
         id="path3" /><path
         fill="none"
         stroke-width="0.131694"
         stroke-linecap="butt"
         stroke-opacity="1"
         stroke="#000000"
         stroke-linejoin="round"
         d="m 590.1837,213.27785 c 0,7.46554 0,14.93108 0,22.39663"
         id="path4" /><path
         fill="none"
         stroke-width="0.131694"
         stroke-linecap="butt"
         stroke-opacity="1"
         stroke="#000000"
         stroke-linejoin="round"
         d="m 590.1837,235.67448 c -7.86813,0 -15.73627,0 -23.6044,0"
         id="path5" /><path
         fill="none"
         stroke-width="0.131694"
         stroke-linecap="butt"
         stroke-opacity="1"
         stroke="#000000"
         stroke-linejoin="round"
         d="m 495.83195,260.45846 c -15.7289,-15.72643 -31.45876,-31.45189 -47.1901,-47.17587"
         id="path6" /><path
         fill="none"
         stroke-width="0.0940276"
         stroke-linecap="butt"
         stroke-opacity="1"
         stroke="#000000"
         stroke-linejoin="round"
         d="m 548.69269,237.65343 c 0,-6.5812 0,-13.16241 0,-19.7436 -3.61344,0 -7.22689,0 -10.84034,0 -0.11522,7.19479 0.23953,14.41508 -0.19454,21.59368 -0.83297,5.86091 -11.03633,5.76272 -11.66265,-0.16831 -0.42938,-7.13197 0.0607,-14.28942 -0.25613,-21.42537 -3.58317,0 -7.16636,0 -10.74955,0"
         id="path7" /><path
         fill="none"
         stroke-width="0.131694"
         stroke-linecap="butt"
         stroke-opacity="1"
         stroke="#000000"
         stroke-linejoin="round"
         d="m 448.64185,213.28259 c 15.73004,15.72528 31.46011,31.45054 47.1901,47.17587"
         id="path8" /><path
         fill="none"
         stroke-width="0.0940276"
         stroke-linecap="butt"
         stroke-opacity="1"
         stroke="#000000"
         stroke-linejoin="round"
         d="m 523.36389,250.50814 c -1.08698,-0.68496 -2.1738,-1.37029 -3.26079,-2.05525"
         id="path9" /><path
         fill="none"
         stroke-width="0.0940276"
         stroke-linecap="butt"
         stroke-opacity="1"
         stroke="#000000"
         stroke-linejoin="round"
         d="m 519.00824,247.76268 c -2.5283,-3.01515 -3.69712,-6.19936 -4.01876,-10.10925"
         id="path10" /><path
         fill="none"
         stroke-width="0.0940276"
         stroke-linecap="butt"
         stroke-opacity="1"
         stroke="#000000"
         stroke-linejoin="round"
         d="m 548.69269,237.65343 c -0.38115,4.52398 -1.99841,9.27514 -6.17838,11.62517 -4.40965,2.43591 -9.79206,2.45216 -14.71946,2.11946 -1.49936,-0.16842 -2.98078,-0.4756 -4.43096,-0.88992"
         id="path11" /><path
         fill="none"
         stroke-width="0.0940276"
         stroke-linecap="butt"
         stroke-opacity="1"
         stroke="#000000"
         stroke-linejoin="round"
         d="m 548.00213,241.50716 c -0.0522,0.29143 -0.26113,1.45702 -0.31328,1.74839"
         id="path12" /><path
         fill="none"
         stroke-width="0.0940276"
         stroke-linecap="butt"
         stroke-opacity="1"
         stroke="#000000"
         stroke-linejoin="round"
         d="m 514.98948,237.65343 c 0,-6.5812 0,-13.16241 0,-19.7436"
         id="path13" /><path
         fill="none"
         stroke-width="0.131694"
         stroke-linecap="butt"
         stroke-opacity="1"
         stroke="#000000"
         stroke-linejoin="round"
         d="m 472.23216,284.05813 c -7.86184,7.85875 -15.72375,15.71743 -23.58557,23.57621 33.82692,0 67.65385,0 101.48077,0"
         id="path14" /><path
         fill="none"
         stroke-width="0.131694"
         stroke-linecap="butt"
         stroke-opacity="1"
         stroke="#000000"
         stroke-linejoin="round"
         d="m 566.5793,235.67448 c 0,16.52107 0,33.04216 0,49.56323"
         id="path15" /><path
         fill="none"
         stroke-width="0.0940276"
         stroke-linecap="butt"
         stroke-opacity="1"
         stroke="#000000"
         stroke-linejoin="round"
         d="m 519.94993,248.35632 c -0.15694,-0.099 -0.78473,-0.4947 -0.94169,-0.59364"
         id="path16"
         inkscape:label="path16" /><path
         fill="none"
         stroke-width="0.0940276"
         stroke-linecap="butt"
         stroke-opacity="1"
         stroke="#000000"
         stroke-linejoin="round"
         d="m 519.13959,247.84554 0.17797,0.11213"
         id="path17" /><path
         fill="none"
         stroke-width="0.0940276"
         stroke-linecap="butt"
         stroke-opacity="1"
         stroke="#000000"
         stroke-linejoin="round"
         d="m 520.1031,248.45277 -0.15317,-0.0964"
         id="path18" /><path
         fill="none"
         stroke-width="0.0940276"
         stroke-linecap="butt"
         stroke-opacity="1"
         stroke="#000000"
         stroke-linejoin="round"
         d="m 520.1031,248.45289 c 1.25881,0.79337 4.90398,3.09096 1.63043,1.0276 l -0.81518,-0.51384 z"
         id="path19" /><path
         fill="none"
         stroke-width="0.131694"
         stroke-linecap="butt"
         stroke-opacity="1"
         stroke="#000000"
         stroke-linejoin="round"
         d="m 590.1837,285.23771 c 0,7.46554 0,14.93109 0,22.39663"
         id="path20" /><path
         fill="none"
         stroke-width="0.131694"
         stroke-linecap="butt"
         stroke-opacity="1"
         stroke="#000000"
         stroke-linejoin="round"
         d="m 566.5793,285.23771 c 7.86813,0 15.73627,0 23.6044,0"
         id="path21" /><path
         fill="none"
         stroke-width="0.0940276"
         stroke-linecap="butt"
         stroke-opacity="1"
         stroke="#000000"
         stroke-linejoin="round"
         d="m 548.69269,237.65343 c -0.23004,1.28459 -0.4605,2.56911 -0.69056,3.85373"
         id="path22" /><path
         fill="none"
         stroke-width="0.131694"
         stroke-linecap="butt"
         stroke-opacity="1"
         stroke="#000000"
         stroke-linejoin="round"
         d="m 590.1837,213.27785 c -13.35211,0 -26.70423,0 -40.05634,0"
         id="path23" /><path
         fill="none"
         stroke-width="0.131694"
         stroke-linecap="butt"
         stroke-opacity="1"
         stroke="#000000"
         stroke-linejoin="round"
         d="m 550.12736,307.63434 c 13.35211,0 26.70423,0 40.05634,0"
         id="path24" /><path
         fill="none"
         stroke-width="0.0940276"
         stroke-linecap="butt"
         stroke-opacity="1"
         stroke="#000000"
         stroke-linejoin="round"
         d="m 523.36389,250.50814 c -1.08699,-0.68496 -2.17378,-1.37032 -3.26079,-2.05525"
         id="path25" /><path
         fill="none"
         stroke-width="0.0940276"
         stroke-linecap="butt"
         stroke-opacity="1"
         stroke="#000000"
         stroke-linejoin="round"
         d="m 520.1031,248.45289 v 0"
         id="path26" /><path
         fill="none"
         stroke-width="0.0940276"
         stroke-linecap="butt"
         stroke-opacity="1"
         stroke="#000000"
         stroke-linejoin="round"
         d="m 519.94993,248.35632 -0.0194,-0.0125"
         id="path27" /><path
         fill="none"
         stroke-width="0.0940276"
         stroke-linecap="butt"
         stroke-opacity="1"
         stroke="#000000"
         stroke-linejoin="round"
         d="m 519.94993,248.35632 -0.0194,-0.0125"
         id="path28" /><path
         fill="none"
         stroke-width="0.0940276"
         stroke-linecap="butt"
         stroke-opacity="1"
         stroke="#000000"
         stroke-linejoin="round"
         d="m 519.94993,248.35632 -0.81034,-0.51078"
         id="path29" /><path
         fill="none"
         stroke-width="0.0940276"
         stroke-linecap="butt"
         stroke-opacity="1"
         stroke="#000000"
         stroke-linejoin="round"
         d="m 523.36389,250.50814 c -1.138,-0.71724 -2.27591,-1.43461 -3.41396,-2.15182"
         id="path30" /><path
         fill="none"
         stroke-width="0.0940276"
         stroke-linecap="butt"
         stroke-opacity="1"
         stroke="#000000"
         stroke-linejoin="round"
         d="m 519.93037,248.34397 c -0.15367,-0.0969 -0.7684,-0.48441 -0.92213,-0.58129"
         id="path31" /><path
         fill="none"
         stroke-width="0.0940276"
         stroke-linecap="butt"
         stroke-opacity="1"
         stroke="#000000"
         stroke-linejoin="round"
         d="m 519.31756,247.95767 0.61281,0.3863"
         id="path32" /><path
         fill="none"
         stroke-width="0.0940276"
         stroke-linecap="butt"
         stroke-opacity="1"
         stroke="#000000"
         stroke-linejoin="round"
         d="m 519.93037,248.34397 c 1.1446,0.72134 2.28897,1.44286 3.43352,2.16417"
         id="path33" /><path
         fill="none"
         stroke-width="0.0940276"
         stroke-linecap="butt"
         stroke-opacity="1"
         stroke="#000000"
         stroke-linejoin="round"
         d="m 519.00824,247.76268 c 0.15373,0.0969 0.76846,0.48442 0.92213,0.58129"
         id="path34" /><path
         fill="none"
         stroke-width="0.131694"
         stroke-linecap="butt"
         stroke-opacity="1"
         stroke="#000000"
         stroke-linejoin="round"
         d="m 472.23216,284.05813 c 7.86661,-7.86655 15.73313,-15.73317 23.59979,-23.59967"
         id="path35" /><path
         fill="none"
         stroke-width="0.131694"
         stroke-linecap="butt"
         stroke-opacity="1"
         stroke="#000000"
         stroke-linejoin="round"
         d="m 512.4065,213.27785 c -21.25488,0 -42.50977,0 -63.76465,0"
         id="path36" /><g
         id="g1"
         transform="matrix(1.140096,0,0,1.140096,496.4553,245.95477)"><circle
           fill="#6666ff"
           cx="25"
           cy="20"
           r="3.2"
           id="circle1" /><circle
           fill="#6666ff"
           cx="25"
           cy="40"
           r="3.2"
           id="circle2" /><circle
           fill="#6666ff"
           cx="35"
           cy="40"
           r="3.2"
           id="circle3" /></g><rect
         style="fill:none;fill-rule:evenodd;stroke:#000000;stroke-width:0.123988;stroke-dasharray:none;stroke-opacity:1"
         id="rect14"
         width="39.107658"
         height="43.244045"
         x="510.25635"
         y="260.25137" /><path
         style="fill:none;stroke:#000000;stroke-width:0.132;stroke-linecap:round;stroke-linejoin:round;stroke-dasharray:none;stroke-opacity:1;paint-order:markers stroke fill"
         d="m 512.7624,275.06769 8.10676,-11.40951 h -8.10676 z"
         id="path15-4" /></g></g></svg>
